<svg id="outline" viewBox="0 0 32 32" xmlns="http://www.w3.org/2000/svg"><path d="m29.514 12.077-11.573-9.824c-1.125-.955-2.758-.955-3.883 0l-11.573 9.825c-.672.572-1.058 1.405-1.058 2.287v13.264c0 1.583 1.289 2.872 2.872 2.872h23.401c1.583 0 2.872-1.289 2.872-2.872v-13.265c0-.881-.386-1.715-1.058-2.287t0 0zm-9.833 16.423h-7.36v-6.488c0-.48.391-.872.872-.872h5.616c.481 0 .872.391.872.872zm8.892-.872c0 .481-.391.872-.872.872h-6.02v-6.488c0-1.583-1.289-2.872-2.872-2.872h-5.616c-1.583 0-2.872 1.288-2.872 2.872v6.488h-6.021c-.481 0-.872-.391-.872-.872v-13.264c0-.294.129-.572.353-.763l11.572-9.824c.188-.159.417-.239.647-.239s.46.08.647.239l11.571 9.824c.225.191.354.469.354.763v13.264z"/></svg>