<svg id="SVGRoot" height="24" viewBox="0 0 24 24" width="24" xmlns="http://www.w3.org/2000/svg" xmlns:svg="http://www.w3.org/2000/svg"><g id="g2"><path id="path2" d="m4.5 5c-1.3763486 0-2.5 1.1236514-2.5 2.5v9c0 1.376349 1.1236514 2.5 2.5 2.5h11c1.376349 0 2.5-1.123651 2.5-2.5v-1.007812l1.794922 1.974609c.308879.33909.746397.533347 1.205078.533203.546361 0 1-.453639 1-1v-10c0-.5463614-.453639-1-1-1-.458681-.0001446-.896199.1941134-1.205078.5332031l-1.794922 1.9746094v-1.0078125c0-1.3763486-1.123651-2.5-2.5-2.5zm0 1h11c.839647 0 1.5.660353 1.5 1.5v9c0 .839647-.660353 1.5-1.5 1.5h-11c-.839647 0-1.5-.660353-1.5-1.5v-9c0-.839647.660353-1.5 1.5-1.5zm16.5 1v10c-.177685.000056-.347143-.07372-.466797-.205078l-2.533203-2.789063v-4.0117184l2.533203-2.7890625c.119654-.1313571.289112-.2051341.466797-.2050781z" stroke-linecap="round" stroke-linejoin="round"/></g></svg>